<svg width="66" height="66" viewBox="0 0 66 66" fill="none" xmlns="http://www.w3.org/2000/svg">
<rect width="66" height="66" rx="33" fill="white"/>
<path d="M37.8205 47.7674C40.6072 47.7674 43.0089 47.1441 45.0255 45.8974C47.0422 44.6141 48.5822 42.8541 49.6455 40.6174C50.6722 38.3808 51.1855 35.8324 51.1855 32.9724C51.1855 30.0391 50.6355 27.4541 49.5355 25.2174C48.4355 22.9808 46.8772 21.2574 44.8605 20.0474C42.8439 18.8374 40.4972 18.2324 37.8205 18.2324C35.1805 18.2324 32.9072 18.8191 31.0005 19.9924C29.0939 21.1291 27.6455 22.7058 26.6555 24.7224C25.6655 26.7391 25.1705 29.0674 25.1705 31.7074C25.1705 32.7341 25.1889 33.3941 25.2255 33.6874H28.9655V30.5524C28.9655 28.8658 29.3322 27.3258 30.0655 25.9324C30.7622 24.5024 31.7889 23.3841 33.1455 22.5774C34.5022 21.7341 36.1155 21.3124 37.9855 21.3124C39.8189 21.3124 41.4689 21.7524 42.9355 22.6324C44.3655 23.5124 45.4839 24.7041 46.2905 26.2074C47.0605 27.6741 47.4455 29.3241 47.4455 31.1574C47.4455 31.9641 47.4455 32.7708 47.4455 33.5774C47.4455 35.5574 47.0972 37.3908 46.4005 39.0774C45.6672 40.7641 44.5855 42.1208 43.1555 43.1474C41.6889 44.1741 39.8922 44.6874 37.7655 44.6874C36.0055 44.6874 34.5205 44.3574 33.3105 43.6974C32.0639 43.0008 31.1289 42.1941 30.5055 41.2774C29.8822 40.3241 29.4422 39.3708 29.1855 38.4174H25.5555C26.2889 41.2041 27.6822 43.4591 29.7355 45.1824C31.7889 46.9058 34.4839 47.7674 37.8205 47.7674Z" fill="white"/>
<path d="M37.8205 47.7674C40.6072 47.7674 43.0089 47.1441 45.0255 45.8974C47.0422 44.6141 48.5822 42.8541 49.6455 40.6174C50.6722 38.3808 51.1855 35.8324 51.1855 32.9724C51.1855 30.0391 50.6355 27.4541 49.5355 25.2174C48.4355 22.9808 46.8772 21.2574 44.8605 20.0474C42.8439 18.8374 40.4972 18.2324 37.8205 18.2324C35.1805 18.2324 32.9072 18.8191 31.0005 19.9924C29.0939 21.1291 27.6455 22.7058 26.6555 24.7224C25.6655 26.7391 25.1705 29.0674 25.1705 31.7074C25.1705 32.7341 25.1889 33.3941 25.2255 33.6874H28.9655V30.5524C28.9655 28.8658 29.3322 27.3258 30.0655 25.9324C30.7622 24.5024 31.7889 23.3841 33.1455 22.5774C34.5022 21.7341 36.1155 21.3124 37.9855 21.3124C39.8189 21.3124 41.4689 21.7524 42.9355 22.6324C44.3655 23.5124 45.4839 24.7041 46.2905 26.2074C47.0605 27.6741 47.4455 29.3241 47.4455 31.1574C47.4455 31.9641 47.4455 32.7708 47.4455 33.5774C47.4455 35.5574 47.0972 37.3908 46.4005 39.0774C45.6672 40.7641 44.5855 42.1208 43.1555 43.1474C41.6889 44.1741 39.8922 44.6874 37.7655 44.6874C36.0055 44.6874 34.5205 44.3574 33.3105 43.6974C32.0639 43.0008 31.1289 42.1941 30.5055 41.2774C29.8822 40.3241 29.4422 39.3708 29.1855 38.4174H25.5555C26.2889 41.2041 27.6822 43.4591 29.7355 45.1824C31.7889 46.9058 34.4839 47.7674 37.8205 47.7674Z" fill="url(#paint0_linear_920_5082)"/>
<path d="M28.1795 47.7674C25.3928 47.7674 22.9911 47.1441 20.9745 45.8974C18.9578 44.6141 17.4178 42.8541 16.3545 40.6174C15.3278 38.3808 14.8145 35.8324 14.8145 32.9724C14.8145 30.0391 15.3645 27.4541 16.4645 25.2174C17.5645 22.9808 19.1228 21.2574 21.1395 20.0474C23.1561 18.8374 25.5028 18.2324 28.1795 18.2324C30.8195 18.2324 33.0928 18.8191 34.9995 19.9924C36.9061 21.1291 38.3545 22.7058 39.3445 24.7224C40.3345 26.7391 40.8295 29.0674 40.8295 31.7074C40.8295 32.7341 40.8111 33.3941 40.7745 33.6874H16.5745V30.5524H37.0345C37.0345 28.8658 36.6678 27.3258 35.9345 25.9324C35.2378 24.5024 34.2111 23.3841 32.8545 22.5774C31.4978 21.7341 29.8845 21.3124 28.0145 21.3124C26.1811 21.3124 24.5311 21.7524 23.0645 22.6324C21.6345 23.5124 20.5161 24.7041 19.7095 26.2074C18.9395 27.6741 18.5545 29.3241 18.5545 31.1574C18.5545 31.9641 18.5545 32.7708 18.5545 33.5774C18.5545 35.5574 18.9028 37.3908 19.5995 39.0774C20.3328 40.7641 21.4145 42.1208 22.8445 43.1474C24.3111 44.1741 26.1078 44.6874 28.2345 44.6874C29.9945 44.6874 31.4795 44.3574 32.6895 43.6974C33.9361 43.0008 34.8711 42.1941 35.4945 41.2774C36.1178 40.3241 36.5578 39.3708 36.8145 38.4174H40.4445C39.7111 41.2041 38.3178 43.4591 36.2645 45.1824C34.2111 46.9058 31.5161 47.7674 28.1795 47.7674Z" fill="white"/>
<path d="M28.1795 47.7674C25.3928 47.7674 22.9911 47.1441 20.9745 45.8974C18.9578 44.6141 17.4178 42.8541 16.3545 40.6174C15.3278 38.3808 14.8145 35.8324 14.8145 32.9724C14.8145 30.0391 15.3645 27.4541 16.4645 25.2174C17.5645 22.9808 19.1228 21.2574 21.1395 20.0474C23.1561 18.8374 25.5028 18.2324 28.1795 18.2324C30.8195 18.2324 33.0928 18.8191 34.9995 19.9924C36.9061 21.1291 38.3545 22.7058 39.3445 24.7224C40.3345 26.7391 40.8295 29.0674 40.8295 31.7074C40.8295 32.7341 40.8111 33.3941 40.7745 33.6874H16.5745V30.5524H37.0345C37.0345 28.8658 36.6678 27.3258 35.9345 25.9324C35.2378 24.5024 34.2111 23.3841 32.8545 22.5774C31.4978 21.7341 29.8845 21.3124 28.0145 21.3124C26.1811 21.3124 24.5311 21.7524 23.0645 22.6324C21.6345 23.5124 20.5161 24.7041 19.7095 26.2074C18.9395 27.6741 18.5545 29.3241 18.5545 31.1574C18.5545 31.9641 18.5545 32.7708 18.5545 33.5774C18.5545 35.5574 18.9028 37.3908 19.5995 39.0774C20.3328 40.7641 21.4145 42.1208 22.8445 43.1474C24.3111 44.1741 26.1078 44.6874 28.2345 44.6874C29.9945 44.6874 31.4795 44.3574 32.6895 43.6974C33.9361 43.0008 34.8711 42.1941 35.4945 41.2774C36.1178 40.3241 36.5578 39.3708 36.8145 38.4174H40.4445C39.7111 41.2041 38.3178 43.4591 36.2645 45.1824C34.2111 46.9058 31.5161 47.7674 28.1795 47.7674Z" fill="url(#paint1_linear_920_5082)"/>
<defs>
<linearGradient id="paint0_linear_920_5082" x1="39.1536" y1="47.7674" x2="36.226" y2="18.2971" gradientUnits="userSpaceOnUse">
<stop/>
<stop offset="1" stop-color="#1C3F64"/>
</linearGradient>
<linearGradient id="paint1_linear_920_5082" x1="26.8464" y1="47.7674" x2="29.774" y2="18.2971" gradientUnits="userSpaceOnUse">
<stop/>
<stop offset="1" stop-color="#1C3F64"/>
</linearGradient>
</defs>
</svg>
